<mxfile host="app.diagrams.net" agent="Mozilla/5.0 (X11; Linux x86_64; rv:128.0) Gecko/20100101 Firefox/128.0" version="26.2.3">
  <diagram name="Page-1" id="HCe1P_sOcrUrDI_-o8yT">
    <mxGraphModel dx="788" dy="1315" grid="1" gridSize="10" guides="1" tooltips="1" connect="1" arrows="1" fold="1" page="1" pageScale="1" pageWidth="850" pageHeight="1100" math="0" shadow="0">
      <root>
        <mxCell id="0" />
        <mxCell id="1" parent="0" />
        <mxCell id="DPOwjDuqGM72gEAuqrdW-1" value="" style="shape=image;verticalLabelPosition=bottom;labelBackgroundColor=default;verticalAlign=top;aspect=fixed;imageAspect=0;image=data:image/gif,R0lGODlhIANfAfcAAM7Ozmtrajg4OPrQ0rS0s4mx1Nzc3O1aY2WKtkVqm66JZJlwUPPz80ZGRSgoJ6kEDry8vFNTUi4BA6/V8O/UsuUGEtKuiPX19Y0DC+MGEv/459PT03Nzc6ysrOnp6fn796GhoW0CCW9NMEwCBu7u7oODguoGExYVFPaushsyXHx8e5ycnNYFEeDg4Of6/3Sexvzn6JSUlCxIc7DD18fHxvzp1Nfp+IyMjMfY6NfFtfKMkcoFEMDAwCEhH+Xl5fL+//znyMnm+1tbWhUAAWVkYgcDAs25pcSddb6mj+krNv7z3OMAC+YFFE02Km1XSdz0/5Cpv/709Pi+wfr9/j5XfeLt9gYQMaDH5rKagP79+4pcQOvf0eMGFISctE0qFlJjetfh693QxdfNwN66ksnS3OlASsDM27vh+ucbJ/F2fejIo+UQHPv9+70FD1RIQv//7/76+v//97Wxr7qtoDonHA4fQvH3/W9vbzQzM2NALPj7/zMZHMzFwDxFWKW1xpuMf/f3956uvU9PT+MIFO/p4CUnOP769j4+PhERD0dQXPWcoXiMn2Bqdu/m3f/68dCEiH1qXuLp7YaSneQMGe8GFNIADCYzRM7v//L18r7HzwUFGOMBD+Dl7u/t6rscJs/W3qumoZSfmvbdwPb288jf8lhYWJKRj+PXy2N0jMbJy+fl43l4eFJaY6WlpVFVWD4qN0UZEpmZmdTa4FxTTr+1rf37/Ort76QkKtnZ2cXFw7m5uVw5HP/w0WBLT+kIE+cBD+30+vjy65+WkePl5Pzd3gwRHp2SnRgKCdQQHOXi4IiIiMPDw1ZWVWl8khwbGS8vLsUPGP39/fv7+w0NDPn5+fn7+f///f3//8nJyfv7+fn7+/3//f/9/f39///9/6ioqPj5/JeXl/v5+/zv6+vr6/v59+Pj49XOz/v38LG/x9MWIre3t7e5t9fX1ncfI5MoLv739+4BDfTs5KiglZe+3ZCQkE99rHZ2dtq/oGBgX5J/b8XFxcrAwPHx8WNgbv///yH/C1hNUCBEYXRhWE1QPD94cGFja2V0IGJlZ2luPSLvu78iIGlkPSJXNU0wTXBDZWhpSHpyZVN6TlRjemtjOWQiPz4gPHg6eG1wbWV0YSB4bWxuczp4PSJhZG9iZTpuczptZXRhLyIgeDp4bXB0az0iQWRvYmUgWE1QIENvcmUgNS42LWMxMjMgNzkuMTU4OTc4LCAyMDE2LzAyLzEzLTAxOjExOjE5ICAgICAgICAiPiA8cmRmOlJERiB4bWxuczpyZGY9Imh0dHA6Ly93d3cudzMub3JnLzE5OTkvMDIvMjItcmRmLXN5bnRheC1ucyMiPiA8cmRmOkRlc2NyaXB0aW9uIHJkZjphYm91dD0iIiB4bWxuczp4bXA9Imh0dHA6Ly9ucy5hZG9iZS5jb20veGFwLzEuMC8iIHhtbG5zOnhtcE1NPSJodHRwOi8vbnMuYWRvYmUuY29tL3hhcC8xLjAvbW0vIiB4bWxuczpzdFJlZj0iaHR0cDovL25zLmFkb2JlLmNvbS94YXAvMS4wL3NUeXBlL1Jlc291cmNlUmVmIyIgeG1wOkNyZWF0b3JUb29sPSJBZG9iZSBQaG90b3Nob3AgRWxlbWVudHMgMTUuMCAoV2luZG93cykiIHhtcE1NOkluc3RhbmNlSUQ9InhtcC5paWQ6N0U3QTkyMThGNkYyMTFFN0E0NzM5RjQ1NjY2MzVBNTUiIHhtcE1NOkRvY3VtZW50SUQ9InhtcC5kaWQ6N0U3QTkyMTlGNkYyMTFFN0E0NzM5RjQ1NjY2MzVBNTUiPiA8eG1wTU06RGVyaXZlZEZyb20gc3RSZWY6aW5zdGFuY2VJRD0ieG1wLmlpZDo3RTdBOTIxNkY2RjIxMUU3QTQ3MzlGNDU2NjYzNUE1NSIgc3RSZWY6ZG9jdW1lbnRJRD0ieG1wLmRpZDo3RTdBOTIxN0Y2RjIxMUU3QTQ3MzlGNDU2NjYzNUE1NSIvPiA8L3JkZjpEZXNjcmlwdGlvbj4gPC9yZGY6UkRGPiA8L3g6eG1wbWV0YT4gPD94cGFja2V0IGVuZD0iciI/PgH//v38+/r5+Pf29fTz8vHw7+7t7Ovq6ejn5uXk4+Lh4N/e3dzb2tnY19bV1NPS0dDPzs3My8rJyMfGxcTDwsHAv769vLu6ubi3trW0s7KxsK+urayrqqmop6alpKOioaCfnp2cm5qZmJeWlZSTkpGQj46NjIuKiYiHhoWEg4KBgH9+fXx7enl4d3Z1dHNycXBvbm1sa2ppaGdmZWRjYmFgX15dXFtaWVhXVlVUU1JRUE9OTUxLSklIR0ZFRENCQUA/Pj08Ozo5ODc2NTQzMjEwLy4tLCsqKSgnJiUkIyIhIB8eHRwbGhkYFxYVFBMSERAPDg0MCwoJCAcGBQQDAgEAACH5BAAAAAAALAAAAAAgA18BAAj/AP8JHEiwoMGDCBMqXMiwocOHECNKnEixosWLGDNq3Ehwm7Vr1gaCBGkw2j9rJv9d82atJUeDIVW6vPZyIsuBLVmy/MgzWsyaQINebGmNm8iWKQuGdHnSpzVvQlUKJOoyJ9GTLa/RFLgN5E+cH00+TUpwa8WwS6OqXcu2rdu3cOPKlbjzpCoDdlT6hOkyWydw/5xGtUYC07+b5ZIZMGDuroEWedvSzNLIFs6tKKnO3fzS2za7LfRglVowZZZOeVF+FmqtE7DAh//BISGapCFyej7+y6LYstRyjg1wmnKSpEB0wQ3YMkvR2+RkrzlLn069uvXr2A+GBALp0KFE9Ipr/w9JockVgVAffv0KU6AGNy8E0twyS8AhBz2898GxkD1GRwtA8Y8oxrjwjxLhBDEaTtk1iJAoRBwiACszFJeefFP9U0MeBTTkn0RvOGEPeiGJ4sYEsf1DwSEoWoNEKQ0cIggqCv5jwQn2efcFf1qt9M8R+Xl3SAOM2KDdSQyRpIQT57Xn4JNQRinllJu9oYUMVcSBRSEoerVXFoBIIxAFdFxhDSDEMZXNBaKdVItJ1AAmUBZiZgEOTU8JVA4gW2nQBAI4ZTEKINssIIMLgFwwRTRwymnNnsQFlgVIgJiUXjQX3NmUSR84iqZMtXRjoyVGqvEMigJhmiajlGqTIpVzvf8hAhVVGKJAIWeoxNKXn2roRYeAtBmTOBfUMlWojzrKjbFgYiaQIXwKJGsCA0FFwSuomqSGAyiO8Yof4EjTiBYpPPFjCmBEQ00wC6RgoFYhKSDDE/BcQM0WeSQQ6T9sXOCsbKNstVWceFpTizfSUCNeFgqfBIicbv5TDjVkwWrxxRhnnJ0h7VQx5ivnaRUNVEbk810gKtKxCCQCJFLhP6foU18fkrhgjQKo/BHjIgbiw0ooTgjwBSkCNaKPG4egwp+fgB5k6A8DqeGPKYcAakQADbRcIS9ESMJyIn6AlEOEDSj9DxKozCPIIV2E0R0rS0NSgChNaJJIJiIUkcJ5Jbf/3EVe+DCiD9tIauyWIedEpwaXWJkUhxFBg31NDU00M3gfYcOsQi8CNNDFD3Ho04wySC/yGgU/EzGhGQKN8wfSjLAeIrUZioLtYSGZiuIRjAtUgz5EH5GCxwIdYcklKEklr4EDKeDuPxr8IYgA/rwcBxKzHEKhQFvo00DZCi55RQ29dPmGPh2OfQjNrwERwA1uoMK84fTXb//9GeX5jxhOOIAATc4xiQV60AVzIOEEc4OFDMyQjHYF4Q0LQAUYSIAPZ3RoAVaAQguMsIf4jGEaqPjEKfIggx8oQQQ7IgQW+nCGN/yJIEwx1L7GcAx74IITJoJCJDqxgDoEgRdeSAED/xVQhzMAoYP92MIfKqQATXShBUhwBhUysYUruUADeQCU8XDwgzFYgh7WsIAlAuGBMPQCUBY4BgJueI2K4Y8jZsmBE3oQH6bYqAdQMAcWikEPJQRxBskg4gTeAAkJksMCFvyHFjLYgjl08B9qOMEXyGAAcj3BSlQggweQ0IdBioB2UrFdtiB5KugtwAENyIckMtEmCxSDFQEIgBMK0SHc0UQBlkgHBHgAACTsAVAQXKAH5nCI8NzKD+ZQgBUmsCEJJuMPMrgEL2BRgDh8UluHCAI+XtGFSJzCCfo6IhU+YYB9vfGc6Ezn/ZhyihX8IQLhcUmIZCCQOOSAFGSqJQUYh/+JMIBiBfo4QXy0QAWazM5GhaiR8J4whmJ0QQ4dmIMX7OHCpk0lJk8bCD72gCo4dIIfIFiBE6xwBl40IT7/OOIVlJAHS5QABEb6h/MM5EeULvQNWbRRH8xFAUu0UAQyIMA3CKCPOlzCAglFz4XUmRGzhMEY0ntZSBzxSZoYgh+kqIEXUAqEV4QnGGFoRSz08Ugt6OsfshrR4lDlxTNQ4ASLkMM35JCvOICzIKJMlYpKeY0snGIem3PAFwxkASssIhbhMEU+UGEu8RyhGN/DwzRkkA7iUGAPixAqLWbFNIE4AgI24B0UOvANR75AA9SEJK4ICagrCZUACujBBIDggFr/foipuM2tbqlzDUP4oE3/yKhzZEUFJGXBDmRq0lrPp71FgGKrijzrQS2QAoXu1JWlYEYEShGAAnQWLAKR4UC8lasBOYFIIPgDrniBh1qKYg/n0cAcIvQMe9wsBXnhxStsWi6conGnKvIpTi0hhAhEIB/NeIIYL4G73WbEt8LKKE00sAt7RMoQdtCqe716vgawQhKg6KA1zGpQEai1d22NZCJKEQFmEKEL1gRliUCGnn/gA1dxgEQXCCIKOsRHeMT7BxDruBV5PWEU8tCHJZpEAWesOAKuIMILauDj2ERhCgo4ASsMXApGzMCPHbKmPVb0QBEUosAHRgUpgICH8JDG/8FwjrOc1XLCpmmgqkwhooI0IKIeK5dL760lPo4RnwVQgTjTtYRCy5VPgQRDGDioqHy+klGBbLS8RDRXHDBY0me4F741UEZMlfmEmQp5v8Xrb07FaC41+NQahmJeDkDAhgUfRitznsiGUHrCBBgH1ikw0p0RAINfCcR2V2iym8cg0G2QGK0mVi1bfTpkz85jBnallv6IGxkNXAlqt2oSJGt7riCrYQ8d8opMD1VPZZ7HpE27HratmNI8vGBxTaqBMUihhNT+w4tCaJq8YhqGWNhBFM8ID3NyzfCGO5whMTGCG1zhCmYUCUlQUQIkGsAMNyQiCMkVyHIXIIAo36EJ1P8yNKLvKkaFWsJcFmhAi91AhSB0FippCS4VoBaSMeyhvBRwg4cDQIQe0IO9n76CBjbuilIIYsemrva5LplTMnXSpJaYwdJlHoEGxMfWY3m4Q8LYAIpHgLEy8V13mNGAj2v42F5d+iFMTocRPTut0hbIGHBlYzcIIgKCSMRPtb2SEs1CENoVBBWIhlYFzL3FnqOJBeym3VJU7QeaWZ5UIFiHCqnB74BPBIpE4YQ+sP0L5sJC2TuO+mnW8s5Gdc8CTM92BEwB4fEUu+53z/tx0AIEZEiTN3wilrCmIy/j4EcVQhKMZbwmC3wAgRmmsIVMROMUZKBJHMLAH0Jkwg4haUT/JqD2j2DMQfraxwYYaly4U5jBLPJw/kDM/w0wWEMMYHAEH2KKDuWf5BSt0AHr9w9bMH3/kA38wAlFw0pxgH8CAYDr1witwB/bBwKBQDyNkAqRcRO8hxDO8Q/y8HvZlxWjcX8gMANQo3/8539xEH3TV4DXEAafMBliwB/NFx3ysA/Mgw6/x0r/sH384RJf4k+t8H7iAYK/RwBBRghy1QoBOIDGQYCpkBt7oQG0QAbuAQEnmBr/4AggZYACIQ9zMIFWlYCxAYO6ATOgEAj8lwseY0cdGIdyqE4rQRY5IRPJUy26QRTpEYUx8YElGBOWMmnMwYFSkRLrARIXgicwVGNp/7ggONGHKfIVBSMwMRESzJFzPnJbHagZUzGIxAdDj7gXkLgUP6E/qFgtpBiJYJEVPlIWnlgtC8cgSNJGR5GHhXMZcHgVZUESeSKIggFDezF8uDaHxniM9qNuPVJ40eAVYeETOKeMRDESeEKMmeEUmIgkmoEUgcETTwGHTUGCo+GLH7ETN0GNTiEWPlF4WVGOVZGNPUGCziEy7ghA4GiMu+IUXoEnI5EVw3cVW1EX++gNLAES3JAZWuEcSIFzV9GO+siOIJGOfJgVI1MwO/GLzggv05gqVUGQDFkcNAGRVEEU2JgntuiNA6mN8ziLyNiSLgklO+GMH+EVBTmSCvmNiv/IFG30jTJRF3v4iThJFSHpjoXDE1hhilVxEoAYjEG5joFxkZjIFLrxgUhBgooYDR5xiVjBknN4idPYjko5FTdZky5BlgWJhwrJgXwIFQx5kgPRjBd1lIHYh1G5FHCpVx+YlhPJKN7oj87oHBcZjt/YlyOTGTHZjj65Ekv1kozZmC35FRfCiQmRc04iEZLpmBrxE1xJiyKBEVp5mdRBmUrxIY/oEJuJmaiZmqq5mqzZmq75mrAZm7I5m7RZm7Z5m7iZm7q5m7zZm775m8AZnMI5nMRZnMZ5nMiZnMq5nMzZnM75nNAZndI5ndRZndZ5ndiZndq5ndzZnd75neAZnuL/OZ7kWZ7meZ7omZ7quZ7s2Z7u+Z7wGZ/yOZ/0WZ/2eZ/4mZ/6uZ/UyShvyZ8AGqAAygDKwF24IKAImqD3WQICsA5YwwAKGqES2p4NAAL/4AHPAAATuqEcSp6C0Ar/YA54oKGw0aEmeqLX+aEhigcbUKICSg3mYA4Ng6I0ap0qKqItmqAtwAHMUAoc0AKB4UY1OqTKeaMsqqBC0ADk4AMNIARE+qTPaaQ5iqANwAECwQENAKVaupxSqqBVeqURsKViepxdmqBf+g8cIAhjuqbCGQ1lmiSFVxIhkR6mKBX/+CpKQRKLSBBC2oEmQQ5iolcY0QB3cKVqyqaI6ptd2qei/+gSW2AMrEOCwQAKrCMVGrmJBqGR2pgD7yeIx0gWJdAA30AOG3GmPJqoqLqbgmChLXCkLjqZyWMBQ1AHLSIQQFB31dKIFakUcnk9NXSaxlgCRVAEPXAHPHABg2qlaBqmqdqstVkLDQCiw5ChDqETAjQE01BdsUFlI7KHtRCo/jiaIfE4c1QETdMCIJCu6rqu7Nqu7vqu8Bqv8jqv9Fqv7PoNgjCswzoNAqAMG8CoDGGqh+qsBAubJIAHEPAP/fAM62Ca6lZYgbALwWaruHoSOQAJDlAIX1BZuQgWNAEEs4AK7TBRNAECz3CyKJuyKruyLNuyLvuyMBuzMjuzKosHJ/+gr/rqDCoAoRRhqsxasEDLmgZwCO0QGBFQD2O3KzaiCRPwXvOSUhV7BMdgCSqgAnVje6V5lNfgCK/hR90aDSQQtmI7tmRbtmZ7tmibtmq7tmzbtmTLAPegr9PQACsApK8KEabKDEG7t6q5D8zQDwJRAqXgECMjFZN3HvgwBDvHrSkFC1QQGVayTJ94GELqtcA6h6tQBA6gAgAQqBchsHwbuo4pByqQEgSABzy7EPAiecXQJGlkD7yAq2qgCbYFSZoQTz2iPwXhtYxJFnLQCiTAEaArusTbkt9goQKBCwLQogCrlC5xuANxBIjQDLhKAUNgUTLVunl6EJbbuyVRqsr/ygE/W7zkG4cgQAADQQ54oAsNIRaSpwnidjPDCkxaoAnNkAq58AfHwG7y4IZHuLsk27tkYRLN+xB5W74I3IErgL4CAQiH0AENoW42or03AUHmGob6QAfDWgjNEFMWMA3xEYUEYbmgqXuMUsA9G74Dm8As3HALPBDScAjfkLQ0MQ7t8BpMgQ7tEAkY0gnnAABBBoJAjCEGEQcGwMOpOcCDWqjL2sJOzHAvLBAxDMFUqsIEi8JPDMUM/A9TjKDUcAglELgC4LlZXMa4FcVc/MAI2gIOMMP/0AoO4AFAe8J0XMd2XAvfKg1vUsdmTD9o3MUCugzOULT/AAAOQKKoSsd5/4zHjNzI0iANbMAG1fABlFzJlFwNmFwNkcwGdFzCfTwdf6zGAtoBJyDH/0ACDJuq0ZDHjyzJj/zK0pDJljzLtFzLlbzJfPnJ2RHKVBygDBqo0UC3UFrHecwGsUwNtpzMyrzMtgzJmwzLb6LLccHLAuqmyioQAaAMJ9qM0RDJ1PDNzBzO4jzO4gzJWCzNGEHNAbqwMUAQN7AKE8oomzzJ5FzP9nzPtCwNd4nOQqHOAGoADtCwA9EB14yg1hDJ9IzPCr3Q4ZzQH8AGl8vPFeHP/AnQ+0AQPFDQ+zl83ezQDP3RIL3MbLCYEq0RFL2fAL0MGK3R9pkS0eDRIR3TMk3Lkf98wiVt0lsMyP/sACo9EBm9nyghDTM91EQ9y9pgzHt80xdx0vqZ0iutn9Eg1EU91UUdybVg1ees1AXB1Pnp1D7N0vMZ1VQ91kOtyZvMyVmt1QLB1fjp1QLx0/cp1mQ91zFt1sasx2mt1Wx9n279D3Btn1JN14LN0FbNyPqc1ze91/bZ139Nn+oy2JCt0JrcyIys1g/xwiYRw2680z391mBtEUqMEEmB2CUa2qYtqP/ZcHId2axNzpNN2dFs2QyBxv/QAL1c0Tz91Box2m5E2u37qqEt2g/32K1d3A3NBrCtx7I92yWADTywDDyAB7eN0rn91bt9MQSc2nN2DYFt3N7/bcuv7cj6vNwKEQvPAHiCIAgnsMW43dl+/dkvIQ39YA4AkAsE0AEgEAumoAxVuwr3sAocwAH3EOAEXuAc4N/3ULUlcAOmEAtDBQEA0AIkAAjG0pLR8N0YDt7IndwVTt4HsQIQfAGAwACizNm6nRHSQA4GAAAQ0Ar1sAr5EAECcLIO8Ax4MCQHtgolUA+x0AFysA66sA9CPuRDvgy6cN8rEAPK4N8Fdgh48AwOUOM3HgHZfL7YgAsewAC+fU5skOFebsl6DNvfGttOvOUDodj1ydjwrRBgawA08A2mcA/50AB4EOU23gDcVQILvAwbIOEUUxO1MN/tQAO6AOclQARZ/wPlNd45RPBSPNAOHkDGcNblX/7l1SDmY27mT6rpCoHG0SDDAqrmwu3SJIANHSC4h6DoeNCkHHADcoANLZDlks4ZtXAB5GAOG7AOIKAMdzA9UP4MjF4CBDAMHY5blF7pGb7hHM7pYprdmr4C3wAI5EAC5FDi7U0QELDmArEB+QDlOMIB4UAAADAMgADa6iK2HmAOBrAB7N7u7t4OLeAD004CxeKfE1EL5LABugAChy4IDuAMgtABYsLs2XHsyP7dyk7ZeF2+vZ0RsXACiu4A08De1O3ejX0QMXACgiAHBnAPPOAQtd4Pt74BPIDfprDfVRtL90AE+UAEASDgsRTzMv8fAHdwD3fA8vkQ4LGk4/VQD+HQCgSADRvgAyTAAH/eEKe+Cs6QD8jKVAZ/8MUd3gpP5h5OEN9QBCeACIgwrB8foKKeEN+ACMgbDSrQ9QQBCB6AC9igC61wAyUA4ERHBHdQAjseA60gB3KQCxuAC8PgAX5P74BADYAw+IRf+CNOAn7vAS3A7jwAUbGg5G9/B0QXAAleAj3OA7DeD8UuEASQsLjgAAFg7FCP8AnvyFRfvNTAA+EQC6zf+q7/+rAP+yAgBDg7rHfwDeZg4gMBAfCMEAyAB70fGKvwDbiwDBCgCx0QC8pg83egAvUA9BBuAFlO8BIRDYJu5Mm/5HfQ/Kb/AALrsEtCH+4CsQwnkAtMdeGj39rUEOZhLubUP6QGMD3bxQz0X//2f//4j/+lIAT8DxBC8uUr1aDBhn8JFS5k2NDhQ4gRJU6kWNHiRYwZNTo04GDZQh5EANDYR5IktnateiBUyEFILAgAALQz4MMDiQvRNjLUKbFnwp8LgzqMdoGEhxa4NozsEKMUgYQMHMTYWdVqRWvVPmzl2tXrV7BhxY4lW9bsWGq1aklT27Yt26tx5c6lW9fuXavm8NxjgLdhh0Pm/ukc+pCwX8SJFS/+1/GjQgAnnPWgTNnBiWmZDSisdY9HYsJDoxX+OXrwadSpKcqRE/VZLMaxhZ6lXdv2/23cW9ns5u22bWG6wGUPJ148scvhzFQANd7c+XOJjhdiO9HBgwHsBjwEKNIDES7Onv8xIO8BkLS7wlULVx+xZweo419D9xtNWm78+fWbrca7t+9a2qNvQAILtMuHZ6yrqYXsGnTwQQgZrMkDD3wwpwVzhvGglWf6qWitteAycEQSJ5JOIer2aaiE7r7jbBVdOBBAACECCKADxdrryTSeKBoKPtdgKzGuWrTa70iwqqlGGiabVNJIJD/Ihg232AJQQLmwHHJLLjWCoIc7VFhFkDBXMfNMNNNUU818mCmFiDtWEaiEO3rAxsfzmKQGEC279FO2ExOi7rGFVCjCARcTqv9lFQKcakCQAO5pBbSJsLRUISDHc0DIPzOKho0o9XuSytF2LPXUaNZSEr/+drOSSQDX6rMq+zq19VaK6mmAAUBayMcAQMgTdlhiiyUWkGEOccCBHhrApYMS7GuAqkprUSgaPnHVdjgDnslluhO+ZUiFafBI9J/OPqNGmqOYpAsQAsKJIZxwdLEWslhiiCGWFXyYLpZ86eVhVtQyZWC+bSuyL1Sz2ECVR09LZXK3VcGi5uJ1rVRLY7VchZXgnWpNeORb7wggoXbuoKsfEPYJZ5VYGACAA/Ty4cBH9IDKlmSe7cLFo8F0wgaRx3hcpcXNFBUPsRIEEWCaIg4RxBQUBXH/IDNn3PT3HwgenQaRIgz6hjmLDEa4Z4iiyYYahskCmSK1Erom1VrYaJLKjTmOVRq7Q3x7I5HRFtzAaCKoJ6EOlAHqsIQAaOXZFgDZk7ycKWrhDg/+UUYInK/deXDQNWrBgUOEKKUUIRqYpgHTT0f9ma+nSRrdpQlYpQTcc9d9d953V6GEzH04JAJTYlnnhkN2TUgFAVa4QZlviOhh7H9UwEOFVhhV5pkGNDKb09CFYgNKQNr26m+J4uZpNN9ebbJ9jtHXKPDw6yeOAQHiu2FS1f7ph4hV3KMHAojAIQ6BByGQgCgOAcQdECKHQ/TFJ5XDlvzsxzNAYGMdBOAgAXSx/wxddHCDBIAANmLhjHaE5zP/yAcRIMAaGMZQhjOMIQFa4YA7+cABz/hHKXQRjR5EMCH3eIYHSiAAzRWBeiWYBkqe0YphnOAQ3ovPwcB3wcHcx3xfuRdd1EcUulUpVm+RBsQWQz8sptEvOgRAQjjwETMOZh2mWAcEVsCBO9whH9RqyI5SowII/AMAzxCMjij4OTUmMiPYWIkKE0IEEMjlAoegwT88sMN/cEAX/yCdBFfxDHIQoXv1UGJCSoCIDWDjGf1yxhQz8j1FBg1KW/xAF+fyRcOgKkTuc4sFAUeNWAZzLhvAg78uEIAWXKshtrxIUPj1DwTdaYKe86Uw/+TH9f8whJEpVNoKibACuZBAAHdqQQPw8A2dxMIBglBg9Z7BAwoZoAHO4F8JesABEuACEDc4QfdeWcWzxdIaDtvNpxhWzWUKSDSlCpBaSjU/hlCjXWRzT+WsedGM6CICKAuABPs4F12s4h/UaAA4p6kzhGIUbdt05D++Gc5xjicCd2iAHg+RjwgA8x/hMGAAVnGIAAggkP+4ATMi0IASHPVNVAySShUCqihR421x7JJ9EAlRp2aVId842T94wAFmooaqFHUPylT2DyEs56SDuapWhcnSbj7SpFcRpzSXIYRDIEKK+WDJeKyHiGk8IwKc8sAdBOGMafQzAIL5Z1OdGg22RRX/feuCX2U39hbMZpaXILqsxl5Ft1M59GGHIRjj3KrSFZQAcao1zLUYN9aPWnIV6OEAESp1yJSeVltwpZ0352qVuirkAgYwhzmAtbh/9Kq42mGINFqAoefqtH8SgeVjGSZVjFDjhdiQSXe9+13whle84xUvNpaBDR7QABv74IEuIMCDZfCABxCgb33tS9/56sK9+nXvfAmADQrqFqMxMOkKfgsIAOwjcz5RmP9u4KEbREChuBWwNXmbLrnC9E7AMe0Cc1tdlUI1ShalyD4hQIIWbEDFK2Yxi7+rYu8uRcVK2UA7NoALA+CiHUnJMS6Ky6DiXujHzyUyg4osIew8F0JL/yauBwiwAkBUWKU32KTmcJQQI9ZjBYBMSFszQg0QCAYwHqooNaUczAsv7aVxCS57WsvgxsrnisKMRttApgsQ4GIFy4CQUnS8gRyPl7sxjjGMaQyAG+NCxz1WNI4d3WhG49hBkn4QpRvEgw4YYB3UO7MwS4CQaKiAUDegXgs4YA5oyYEDHWhHB9pI1omw+h/YwANj00bhTicyzd6MZFwuIIBK4gW2EAFxXTicGG9cI9kWqUVkj0SNamRkBa0oga0TWQtygGAFMQhrrnumHuCNJwCvrp6KBrMKGtzjBoCZzAnAWVqutbEjfTUMrr2NxV0nhCCtAFi//f1vgPt7BfWwU/9CLtABU9TDFDEggC2xkfB67GtrOqGBviJuihXG2Yqxye1ErqEwZz+bDRkJRwCkKUxABEBx9x5ZaYTiEBUo0AfIVAgubhADECiDANHwwAYAYYD10mDBICvhP0iAhyrf2swsv2C+/7GOO3BA6lOnetWtXvU7lIAcpoyAAIoQNUHcAEURcEAREiuECGxNFw1ghtnDJohIDtshxZ4LNpWZo49ThA0h3w92MRIDIgwjmD+5g9iZvq3QwHohJFhFX3Bxh3bqhBwQIAAuFIoRHrRRGoL4LVHsffjQ5bvjC/FBA4hABBroQgjMaACZj7gKCOhCBaXAw5WTGoFv5EIOqRMEU+X/LJvRWyUas3z22wBfSGsWHvRos3tCcMGBCwiSA8Ds8N2tjxEIBJsIalU6SpcfPqfjZRgCcEBhW2GOfkpQBc8YBhF6z50lFqEDPHiGTFan+IjQnWTKbk+yP8X3I2EDb8iI45uu+gkKDjC878OVoAAObLiDKMsF7nMz4fuH81qefFirClpA0BE9vLgkPJik5eikIWI/IhAAaYgB+TOlEzCAFXCGWPCAIPK9jbMLeaCFb8jBVuiAT7ADhbAGa1gIa8i7IPwHbyjCAfy4IoSIIfyHU/iEh1gLrrgY4suPkSPAfNgaawoABeTATukHFViBBXOIdQgAayEA1loIafAoumCv/4RQht4rM+/zwpXqAW7qLbJJKZ0oJwFohX4ghxVwgNZbnndCinY4rHpygHsgAQMggRtoFhoMqLlQAwkwu8yYhmLogxn4ByAEwgGUm040QqEYQgEpQiPYA3tICG/4xIWhpQ/4m3pQhmHoBxLoh364AAa4AEC4AFzkRV6UHGq4AIwZRmIsRmM8RmQ0Rmk4Rj25mCbJGLZwl4GjQ1thgEM4lDtYBunClADQiW84nIWAAGUogRXYOjirCGyoslhwpe5jq+CjxuIIvwU6R9eKCma4A6AqCCJghpyJBYMgAg7AgzsQgBWqhwhgPRUQhAhYKo2TxKv4ODU4gQLohGEYhmSYA/8vsIIJ4MQijAYi5EigIEJrWLZ/yIIlVIgsCANIcIYiQABVBIpldMUrzAg0zC9dWIf2eq/5wq/5ogGSSC+fDEqhHEqiLEqjPMqgRK9cKEoI2Id9gID44gEC4IF12KCqJCFTmKtauIAm6Uqv/EqwDEuxHEuyLMuuvAAKSUu1XEu2bEu3fEu4jEu5nEu2ZESv+7ppOIQYMAAG6IlYuJl/WIFwQA00xIUNKYFdNAd2IbE+6QkA6DUCOIToa8cNhEeSSbNlYAAayImgkYYoAwoA2IxayJbSAAAIACZyyBmKKwUB0Kub6isGWD/AWqe5IgeaQizFYiyC0b+4UINiuAKGEIX/PZCBH0iIU9AHQRCEZjADTuTEHFgFN3CFRcCBhHCEP6AHJHCDZnABhgCCPPgCPmiCVLyWKrwu9NmAaGEfEHmfXWpGPVlGs4xP+VyXPYHG9wTGiwGEXdRPX/xFEIiPf5CGelDICChQAz1QBE1QBV1QBm1QB3XQBlgWCZ1QCq1QC71QDM1QDd1QDrXQHoCarwtRZ1iBnhCTN+SfhFgFaYqGewCAEggAUyiFSOGAddgIPbMWbBCAZKJML7NMW0kzGpADZxCE1YsAQSiFO6SBBmih5KSWn1AnhTwELdQJQLCJCtGpnqAGtYw8RVlL1cQI3ryKiKQHZYoDLaiDS/gHC9iD/zoYCDrQhC64hjjAgmOwhHwQgj2wAjLVABGogwaQzuJciFHwgWvgBS8YzywCQIaZyYzYgBtYT725rIZqKNAaLUu9VEy11ADJ1Es9jfdIusZYB/4aVVItVVM9VVRNVVVdVf7SSfl6VViNVVmdVVqtVVu9VVzNVVgFoWcI0e7gAAgYw3xYORWoUUwpAR/ohw5QgQuAgBiggRJQhjtQBlC9CJsDJr04Oc9bOh/dFszcAAIIgILIh0Mggs/8B1NLSEFQgQDInJ8wAOS5KXM0wOpTptELU6sYU06MhiC0hgWogyDgBViQgSpICD61gjMQBQlIgECtAS9IgSd4AxFAWIngBf86GM9r2DtX/AC/0wg5UIb2IoARIqF1YA0Rukn6WgdsKCFsaFmXfVmYjVmZnVmardmXha+mxAYawFn4WgZl4J937Na4sMYiOAFBaIV2WogIMLwS0NZ/IIBxDActnMeLaAHEHA+hkkN3FFpvtcOW2o5SEJfm2gCBALWGoAFB4IvrSw0d6RG3LRuAmjOrGEDfJFMjDMI3ONMnUANNKICFqNsx0MiFOAKNlNgUmIKHKEJDTUVvGD5FFZWuiLaduDmb0BAfqEgKudxh8AEr3dKbIAHQDd3QJQfRLV3TPV0SIN3UBV1yaF3Xfd3WdcvNbQEPIAcPMAcfwJDNnUYD5NrnIIH/7dsAEksIaWgAIbkDpw3QyawLHyiBvqiF2tPayvTdH22kuPIqAjqrl7sBg1g5ilqFCBCC2UmbCgTTuL0L3wTOhaCAPaCCKaCAIXBJhTiC31SDIrDbhPjXMzBcxHUIIPwHix1PUHlc/OA7Rs0IUwiA6CuK/gRd8uhPBvhDB15dWwRdW6TFCkZd0W1dC8bgYsmTZqTPtNgI5aPeERnN5jO4Q+g1IqC3l4utvxkGDiCzFZbeHjXhEnE6eAGBqUUNZf0GLl0IDwCBdajXsiLfq8DXjQjCiOwCA4AxLKCDOjiDf3AELbCCLqgxJDgGGXgCJdiFOggEG/uDIWBYww3UhmjC/8XlxI3lCguKgRKQSqlULwBIR11YgVhIuBgoHlNQhhswBXlRBmXQF9z5Y1M45Gi9AUVeZEGO1t9RATFZhUdWgXEsgRv4nVgIBwMDAU7uZBCIBRDYwW/oAFIm5fNah31wWRp4LwBQgS7E4QIxjaHoBwHAkWhYrDfrI/SR4XYShMHk0aCF5bpIuWkAD6C4h48AgTwiggC4A3RSiA1YBZNpZhUYQ0CIBZNhZmVwVyxThgAQiACIATbsACK400ght3/4hjsgAiFg5hX4Urh1rLpQg2MohsroAWegAur8uBpYSWf4ZyoAg4TYAhE4AXx2BlR4gn/g0xT4gZP8wSDkBfEcjP82XhcLioUAIIAWIId+6EpLUoF9sLEaw5AhO7LsOLLTVV3bTUubuBCkMDIl67Ela4f10lmXfcwbaMvcDQnvFebmEI2HECeouOUxtAj08YF7MEdB4KNtnUOfHhIewGdjph0ayIVSiABE+NDk/GUDgJR/Nmgi+OV/SCrVYRZBMFdF0SM86IETEABmuAeFWIcIbTdRMuZvUEhEQJQGWFr8I7bztYtg4AcOkoMOgIBISAhryIJPbAQOAoOPmxvjlIN1KNiEiINzMIOP+0SGCEJH4APq1FhXLCOrKAHAdAgfWIUNIAfOXW3Wbu3W3lzNrUjZnm0LqcgfCzILqZDiGgbXpZD/o7iJ2j0K12UAnJDA4VWIEuC+pzYOoHY5csjaWiACMnNbc4CA+dOFqh5DkCmsBdsjGw7m5b4KXciHZ7jDRcmFDhCEfEghA8gHARAEYOqAdQoH/SyBmooKg1jvZegAIXiGHTWHBpBRkQ2AR2kn6zEFGnhMQXii5WE7HsiFDQgqfzJfeZ6L/01jUXxoiRjJkZwIb9iGn9g7cKCljt2Jb1iBlt2H7mpZAOCBny1lGI9xGZ9xGiflVtC2cEhk3IHk38kdZTCFS45WZVCBeggHRY4BPyYwTS6Be1AvmQWAGADH8B6RnvCABriTC0ggiCCBdQ4AIi2FxFlejOBuN6IaYJ5y/xKBgP427ybvgCKgkQjggAgoAkGIMgIogoyGlAtIThWehnbQBTyIgQhwhq1BEAdgAEFQBgZwBuVxJ3OgvX+4h1Ia62ngATnogTy7v4aU251o3N2Ywq/MT/10RlF3RrD8ACMR9VH/Cv1EErbhu2pAqKKoxVqs4AsOxv7MdV3fdV7nxVGAYOLuh2AvXVqkddZd3Qg29gu+YA0G3W1EcwOx8jZiAC1/CA/YvlXYvlVTW43Yjh1VATOvN26F9gFR8/IOD2wAgTfHg70WBDq38yKIATmgkX7gAH/6NWeIBhDoAWXIhxPYGhD8B5p7BiGKdDwoJ2dggFhYwbFuwQ6YBuCZwf9NrzvQ9oo90c9RGAVMuGBMyHhexARM0EX8HPWLx/gLAHmQHwX9XHlA6HhainVyj/nYkPZ/yPKk7REekGYV4AAxebW3ufYdXYVwb+qtlXn6MPc7jAZ064AT6LV/UPcGiD43FwQy8wACioq86gBpyLR5YixzEID6SyYeYHQDdwBcSL0LaLslQoR6IIEOYAA50PRLQZy/Fj4Ra2O8HwtAGAWHYcB+SLIfS4ZkGAbjqonjNvpYonmbl4h+YGk2zAigT9Gh76PPQ3zjgADyNm900wWn4YAYkJH7tkABeJR64F6kIl5REgAVUOZHMUcSEAJBmJYjWtLPjAU8mJoVKKBDWKH/GGgAAbgDEFgFAQCqZqL7CteIxtWivF/+sOj74KBHWgGAn0KsaRiCIjiGxHKAUgDi+gBvy78Kxa92rLKIyP8Hof/u73cOzj93pcmFaIiB1DGIUhBnhYAALzegBuCAHbUkZQCIUg0aHLpn4B/Cf7hURDh0KIIyHwmlrRB0aGAACAkvhBNC8FCpev0SkixJMhrCDgQQMngWyyTMmAhrfahp8ybOnDp38uzp8yfPaNG8ySxq9CjSpDNbrIvlJEQIdyU6AGCg9GpSlFi3cu3q9SvYsGITemgA4N8FISSKak3Y9t9bpB6ItEC4yhRbaW4BxR3r9y/gwIKVbugxDRfcf7VW//FAiDJaLb6JEUqjJq2yXriPAV2W1jcaZ2mSS1rGXBJ059FbCaz81/Kl12jUgNKubfu2z1qDJ++WmWbTpjUDSF7rbfw48uTKt5bFhlatcg8BJP67g1dmtMxwVS/v7v072A4nECfkcEdXOw/Ukj82Ho2EAQAEArRuGeNrNdz69/PfSa0veGB5g9I1UZSxRAab6IBQcUIF+CCEEUKoFQkCrPOPNESMdJpW0XhgAIi4rHXSVR7c4QFCpdyHnXagASghjDEa104PGjlmXgkBEHHHKjesQAA2LQDClVAv8uZYWx1eVUs/BuTyTQwlcKDjHSUQ0RoJPYDwVX9deombbjJ25f/NNcX9IwUam1SwRBnwIEQmUWLKOSedSqFU4UrRBEBOUd+UIggRQhCRkVcecIDiP4KsGFN2exlZJ6SRyiTNIUQktNgy/5Dgwwa6tGKKCncEEMAd95QQzje6YLNBCx70w0Atj4oVGQMkeNDCBjwQAEI9Kkw5KgfKrNABDQZ4cME/68iR0gkbcPkltNHq9J+kSBFlDUI6ZJABF0ygMZw112BbLbnlwsjAId/AFcAwMnmQDwcqlJIPHr1uuJUP94zYAGyMtsiduQFDihIPJ5SgVzQqNBYTIAZgo8s3K9ygwiqiWnxPjzfEAkIrHawDAQQ8rNoOLiWbbHI7ANAAsi4EdMD/cQz1lIDxqMCuUkIMIMixzAYeaGeSHBoRYDBY0hotLbUCx2QNSvAcgCAXCSryzzXeWBOn0llr7ZdWgByyAlxEHBQTA/foSIQgAgRQD8JHHjXMHSMKoC6Ljm59t5gEONDADRAI0coFF4R5FGgfbrDBPhDsCkIMytwwM8Yl+Ho2EZVXXqrk99yjguPK5PxNyCObox5SkfXjgTmmVN5DCbIedTTsXv5897j/DIAGgtsucQBC2GKNN/DBZ6UoQgE4d1pCPsRyQ8ymgGCV6zD5oIJV1ODRmr92C7+9cm2RQECU+TATgSCCMENECSuo2oJVXRV5GSDxxx84IBfE71mRXAFC/47DHShzhxAE0QBBREAIHLhBK8ZWtNgxEDdsiB65roYQFFSACVy44CaSAIN/+E5SEOQeCGESgRsgRAVnSY4PSoAscuBhYdlzDMBCKMPjMKAdugCBlSIggGc4wAECaAC8hCUHbBigH4NjDwPIgQsI8GoVaDsED3uAByCuIhYEKFb7/NLALdImVlmpVpk4+LRtbSs4KOCgNWonJwc5po0zfCNMAlAChJQgU3ZyG+EQYoASDMkAeHBW3WD4QTgSMiyggQ8NQPA/j+ywh8/44flWoYxwdEAXAMBFq8jBgPglzS2iqR85UIeLDdDAZaAKQAChyMNHNoAZAVCBFYMEq+Nwsf+WO6nGo5IkMBgkwQS+/GU80rA1NhYShG1Rxj3oSDcSneQt7cEKLlagGx4IgE+B3M4gi6lNvwCCBC2QDwgmRgRmWAQPz+ChA845kIGUQgjufGcE1mnOZ/RglZAM4gpAB4BjZfMvtrQlNahRDTawQY1s+ccGlFGChTK0oQ59KEQjKtGJRlQZkIAKRjHqDhVQtKMe/ehHV5DFbcIRBAFASCzABpN+HmUDIEDJNw5hlEYJkqQ2ndAFbIWrlclBDh34KVCDGlQ5rGMZADDA6EgwO5MAiKVY+ScDB8oG/LGUA9M4ASKyqtWtcrWrXv0qWMP61WMMoaxmNatY06rWta71BD3/OJ5TbyqpDgQAJbGoh1G8aYAWFNGNg8QG3Uwh07xoT66GvSMeNeNGCbWHjXG9ClRj59S3BGAae1snZjOr2c1ytrOe7ewh9jACCYy2tKSlw2dTq9rVplYAzujBPhJ7WK2hZB0B0E0HSMhUhOhinFO6AweOt1i2oORhCFGGIGb6r8fOVq66dMtkWNrU3c4psrBjbvGKIIgWhNID3v0ueMMr3vGSt7zm/W4/UKCOSrCgvSzYwXsrUYZhdPe89r0vfsdLgm/0ALbNBSE27jAkAqjAXfngkTsPIbmR9DMXdlRBPpRb2P9SuMJbsa7RcCmWABSBGciSlCKY8IsKkLjETMgg/zGqtY7+xtbCwDMAB5C1jwLHpB8BuIeoAsgBFXZlGccjAo2v6SIXE7nIMsGwtJbaFQ4zY6R0ctoSuFCBC1KZC5vIwNQkRQAWG3lrJFiFVQDAgSHFpB3K4BxH69EuxCIEAs6RhiBUKuQYdrnOFEYytKjBhrEwGXqQup2aSlziqO2OapHasn/trDQVrAXG1mQmYHhwFhLgQRcSrqmiM/3f/OC5S57hc4edPCcUMIFbVb6g7jSoZS5r2lwqQBE57qBA5MUlrm7+hwGeAcg5Y7fVvs4apzvNn15nt8l0wtoYyajsDFQgOFIwtEEZ+w9Et/jXkiqBsxhwhxMi5ZnERIol//+BDTyY49LYtDa6i1mL2QhbP3v2S5/lVJw4weBAFWC2oO9dRmHOG9JIgq5ih/sXaqc7UjewdMJsJFuwaKUD7fhHBw5xrxeeu+AWlyEb2o2bT8M71JGSwhqufMF8Ry0DbBoHB8VlpqsQWyYEv/icYqDSG3RgN20BxAokcoMIyIqmFYc50IOXcY3ThuMdN7aMfvePNCyh1Msmo76Fw0Fv/C4aFyCHOU7WAhIcUeADZ3XQY7SCOf5jBf3qTT+UYZV7WMrcQw473IcpDaL3ZKCCibeMimMmeBwI1fm+d9ROvCAOYqgdHShBPgR4CAEwXgAXEUIJCEAd47w87hH6xkkhTnb/4+QLJUIIMq8tL3qBXaMWwaa7TR6odFAjPUYqLw6gufV3wDN7d1mACzYCgAdnIGIa08jqCYKPVd8jwhkNiMGIWl6Syo8ePLrg+T+WwYGu/0UrG7jDP6jRADmHvvner9aA2HB6PAdUGg+M9tFFHaGqYUsRGXD6tvLNrVSn+BvPyKozBFCKVyojpbFY3ioIAR5g1QnkQ13sBvN933JsAB5IRAvEzXEQwBz5wDMIV/cpILo9E94UyVQFFLvVRDWEYAgSFAkSlPmV4FSdIEHVAgu2oAvGyrcNBt653j8QRRYcwCYwwSDEn/yR0SZMAgpAgAMgwjMwBvu8yAUYwDdEAO/l/8OI+NtXJCAGIocPOMBZ1EIAkMdgoETO/AMAPEO5uR2dTWGRKd/AFIkZRsgMwojVYAsxJMGVxd/TLdvuCAIREgD6xQQJcMAJOEM+KIMdAYYUkmFvMIAAtMY9uNBuMAbEHYL6ncZyEaKdxeDCSaJSrCGMaAUK7KAczqGymcADOIMzhAMUNhNCtAAeaNUzWJoggp0l9kY0jBBC3MCWVOJXXMAdPFwJCEG3ReIr2hkDfNgvfgUmrp9WMB3U4ZugKVsF+AIGEOGsJdZjPMYN/NAzTEMECONYDOIw/sWUIIQEGocBBACK5EMyVaLPvV03Epk0RMAqANw6XqLHzUm9LYG+Kf/jMkJdBYTAMRwCdaBOzyHEBbRKCSACHkRjWHBjPIZFPQgCSuAC9vUGNpzj8fXihC3kbKHEBThAKWDkVhSjYAxScYBcoM2eSWLAEPgjrqWNKSBKwL1IKziDrsFjFLqiR4rFOghAEeGCEGzA6eQXUDLACqhALeCCAAQiYWHaTTbXBTwDLy5lUoAk13yRG+kAgpikSZoABhQBGP5DLPDeCcRZC0RPPSCCABygXygkVGLFMDiAChDAN6SPUM0lXdZlXd5APayDCjzDxF3gWspVUz7lXxaFVG5h/hSFgeSOJ86hVg5BDxgAIDADIvSAM1yVAHAAAQyDkt3INDRAXyakTQ7/JldwQANkR2RcQDAGjmquJmu2pmuupmdIQwOAXlL+nGiSVGDepkwUJsMlRD8A1g3cAwdwwD1M0jcsgznMTuwtJmM+wBCcADbkggMYzDcIQg/gX6WEwzq0AzkcETk0wDQEwGZ6hVrqplF4gADcw2cORgc0wOTlki+apzblpnyWBG+GBTmAgCBMZ+/53u8hwgk4QKV8w70oQhxi5ewxQRtIwDHEJRE6CznMxwASnxQdAqMlBDZM59ltY2jWJ1LgQimUQgncAImWqImeKIqmqIreQQQAkgauVHx6KBzRp4z+w31+BQ8IQmUG6CEIgjvFkwA4QGUWnyB0wJ6NEYKSmOyR/5gJ7IAEDAERHMIJ3NZEtEAHrIIg4MF1XpVu/YMynMAznFDLlWeNmoQ0oI45pKmarimbtqmbvqk5PCLFqWOZyhCNyuiNUmVCEMD9OYOi5AJ3MUCt+IAB0EArqMAh8F4P3MAAJEGU4aNJohoTVMAOjMAQvFYPLAtMkMAGgE8DEGEu/AM52KEQDA6xkWmdelCMpir33KmH5inLiVsqOoBIHIUHgIAATKYWrIHTJek9gqKlltUJNIBLep0QIoIQMEA4OEMBaiOHJhqrZk06jmG03o2r1ieszhRJMIAQTGYtrlRcAEADnIAEtIEJMCcZlRwTVOpZIYIyMEpJfGkP6F4fjv9iYKBqtc7JtKZhvkLItcpntubRP+hCD5yACmTTlh0DBuhbkkYNFzhjWY3WEFjhSpGID4wrszpAKjbAoz1rtfVruewryArPv5pnwGKHW3CAWWrhUZhJZBbBCDCblCEoD4YAzD6ABBRBHmwQdfHGOkynM5jCCjiDA1igWODryGbiqiZt1pSsbp7sUVzsNHCAkngdgyTEKgyBBOxAqfkqs2XACMAsC4SABNzCcFQNymJICTgDEQACD/SXwnks05KLyM7t1jjtbUItvIrbM5zAt1ZsdOkFPGiB1prrpNJsBYHtEIxAe+0AF2TZUBxUPywDihBsjbQitNptndSt5ioN3or/pt4CLgG8lsLJygXEQC4Swy1o7QOcK7pyS6mFgNaygAkwwe6gRB6+SDiAqZjKbedu7tL+brV87mCGrkx8Q4ByG/K4xQYEQGXmgw6gZLla0OsyGyWg5BBgACWcmKql0cr17D/0AzN05hP6rvCuUYt00vmSC/H+pfHGhHhQrL9FgxISQd8CqDO4g/Ry7czSLLOxqwRgANcCYZkMyFFIAw/cAbN2aVp26PpOSPA+MJ2071q+LzzGr/LOBKeCwB0k6u89QweTq6Uy7r0labpWAPYOQQgkCL+FkVFswP0hgiC8p/lKMGM5kw2zr1PWqQWbhOVqxHsYAATEwj3sJ+9NgzNY/ygNlN0JmFXMRo0JQx0XYMCTbu3J9c5RgEAf5sOufV3m5jAYa5pWXEAPdGSZ9nBJYMMzOIN1cIAOFezvBWgDcMA3GECYtMArmFUIuG4UQx3EDsED/AIaPBvhMVWHBAAiqKRgIG0YN3JGIgQglAJtYus8ioU0EEA+COnw/R7RHkIAxEIukIMujUMe6LHMVu8nLqgKU4KCvMluaUUL5CoHIKADO7Itu5jVkVmNojFCrMB19qEPCcLayMEGcJ1JWI3tOKdZLSwqfyILhO0I7MAvHICbfC9MaLEzYM+91vItd/MjLy/AVjJYxPIJ4EGProMBKNVRYIsOVKoEVPEOmEAfQ/9dY2avIKeYUYxqZxYr5n6sN//zYWngNL6qOH+FHLzWN5BAx74yFt/gErQX9rbuPJORLzxz4fpClhVFPQQf923zFwM0SI9FHmLLuKRRQhhU7ZA0Fq80GBVySeShr/HyCiCCA4wNBGFLo9qjCagyBkCqr0ZNPYdAJfCONU/GMtyfIKAIv04bN4e0U2MFtkRDGl2NuFyNUFwLVUdDmVwD7k711YSLVFc1TMvJVKNtG7p0wck0TU/eVSjCIFyZCbDAk4bA4foqifldBsiuCqtaTGzApzpA3C5yUz81YSOFV6NRG4oLBxGISZN0GiX21aYc2laLSSNzGAnFWGsaL2uxA3T/cVJYQ7Lt9JNigC80sxQ3adiqcA7EBAQcQvGtyFIz9UcXNm0jBVcjMxoZWg32zmTDRLgsjQtLSpyES5xgNszx8tueQEcjxTg4agWYwPWWlUTbdYmZ2vu1QbA2QQf4QGZcwAaUgAMgMR9ZbQ3Xtnm3LLYgQR8EQcoRRQ40wBUkxinoQxP0QCEwwgxMAbagwwL0kH8nQiD8QMAEAzvYAEIogAxUwW5fHC+PaiLzgC4jBcjJ7ANAM+1S9zKWHGoPQREY3yvdgxDc7zOsAA4L9myfN4qTRO0ogBWcwT/cHkKMASIUAELgwx5YAiMMpxtMgz1MwT9oQB7UAXDpOI8XNaRY/4AVTABCGMEiAIMtZhov/wMIZKwKOCtx5PbS5eDYPmn2di3iyh6qMZsJcAFES8Am+16A5gM2BA50RfWTKwUjp/hTS/WBtzjhYcsYnAA9/MMbiEAKuEBCGIICaEJ8AzkVkEQcaIEVPIFJYEsWhIEukIEeFDI6iAEEfMKkY4s8pIIdjAM/8ICCI0QjSHoj8EAmOHkNFgc68AEEyEJx1E4wsHokFMcWLIAVdAEY/AMhyMKkI4Q88AAEcEJCOAIA2IAhWHquG1mUX0AJXKcDPNzSaDVCGMgmiHZZrXAJ+68+NmMGtEEIjID27oAWFPFACAEgSgM5BAAztMJCJ8apDrac0/92uBQHi7u4Sf9Dnu+5NbA4FKTztPNBrgO5DACDd5HDKYiAPfR6SeBDE/ThCfTBDPxDHCABHTi8Jew5vhcDK+weItQBFCDEERRDJvNeIcS3xFO8wycCKSCEBugDszpDMaDCDygAh2tCAvzDAtSBgSvBAoiiKH6BgQMBHfSBGzBrMTQDoBNZlMOFLztDzS0NtsBemkR39n7t60qZlL3fmD8A2XJ4NMfDAcBBNbzK4Ghx8TVAOKyZiftzvMv5b/9DvaMRniMCxmvAH9CBxrICB/hBr2uACGiCfzvAMaSAgZsEBexBCvgBAMxBE1CBC1jAMXxBJgAALexCkuN7EVhCIAD/gBF4QR1cwj8cQRHIQDos/h7IAKAfgSagAgC0gxE0QQo8wb4XASqkAgD8gTNAwTjweyTgvM4nuiYsQipgAxYcA+rzghcEPwAAgBZoAo0rfUHHxikKwDTcg6wUh7bEbuFSwshVb7fEdYXn7FlhQDwkAT5vq2RS5lU1QD2w7LufeNub91mzOHuz3z/gA92/uFTLAwAAxLxVs5xRsfFPQ54UN+o11EenD6l/EykqsDKBYjBbb3bJeEJR1B57/8ZoKkARiyaMRy5OjLOgzqU3CjMB2LdBgUkNXqj8mJilE7B/LM9MhPkkJAKKQzVd4UUnwbWJFIa8WHoVa1atW7l29foV/+zSAEWYMQgLFtszRAIMaPX2z9o/OAeWMNkhYciQBya4cKnwF3BgwEx8sXgwIu8QCSEe4B3BogIKinH/LXPgTEUrQc4QncBTYkO0s14J9Oixb3Rq1atZt3b9GnZs2bNp17Z9+/Y1ykSvWjhx5R+FXsCXhkyAMA+Vq/iGjLwK8yBFPUqaUJli7a0SL8fHWCE+tBhGBXWC/LvGDeYlDbvqMBP0vpS/GUpG2JP6E9DQlv+OUjh28j41hqDnqZHiEuUYq3BbkMGxyqJNhROcccYUrXSbiJgkljABg8RGyMCEDDIQTDATCsMAsSIUC6ENEENQ7IF40pjIG8ruQeSZDf4h5/8bZnqYBhE8VsFGmthKO43BJJVckskmnXwSyihpu/AfNY6xx6eJNBAhpn9q8CIFiSiycqSElFvKgiGUuuqIIhQcyhJSFthvqKpIKuY7llYibyJr0otDixSi+2eLWGx4g8vy/lFChASm4I2/Op7gxQuPJnpDCyvOeEqpuPx7U8pQt3LQLNkIuMyZEwTAZSnR/qlRKhQm+eWuxIbAwJcK+hJxVxGZqGAHFBNbrI0KTCCsDbxCWCIJGHSLywA8EAnA1X8uICAfBxBBxIEAcsnPtSNRE5Xccs09F9101V0tmrjiUOAYSwK4Ix86rDjprRzoKCaRO+5wAxEZDkrIijsCmHf/lmMExkoDLTRJhAM3hkjgB1G8KIaViI+h4qOS6KlIpX/GEzOLOS8Jrgkr/OEgn4I+wgeWOhi5w96PLSiiDygiPQiJYwphJIAmNEHgGiBEgis4O9cVlVRTpRWgBAdO4ADciUSzRipv0lgigxdvRUwCDLjwJQO/BuHC1wwwwEvFsHcwwYQKfGUhhCIk2GENKcybKJYTetDFaoqo4eEObbnNR8d/qh1N3KUdfxzyyCWfvKuro/EmjhxUcOOQRBbBwRpropGqkXmIaOCQLwIR6h9H9GkAdthZ6aIKrTRAwolDWPFDj4kIEWYW3VefKhEcKDLCFYmM+CI6a4744qN/Gvkj/wLdoXBh7y30caOBZoxH6I9Dmvnh+dr/CeP1BlAxY4pFA9A5LiB6+ZhyJpt+jYFwnjnBgW9quUdCMcBK6K4BAw11aAgh4EJjVgSZEZVNbiZ4gIcwsANf5AqCEJzgrX4xo4mQQxDTiAAJWkURaWBjFXg4wTTyUTXVNK5+MZThDGlYQ9eErk+U+Uc2qOGqa4wOay6RRjUoEzprsEEaSZQGNYqowz69JRrUkMo1qJQFabhqdN4AIhWjMQWpZIENOLyGFnXzFsVJQyrYweERizSRNNaCDdGIhjRqRJkkioaMtejGZOJoQ9zcrzXRUMYJJCSkFUTNb+Fw4Rj/IYVJIHAxGP8IAV7yEgIHlo0JTGAB2DDAgmOVbURoE1EFNlmEEVSiDFGYSGlOsIISYmUDROAfBFoDQz/eEpe51KXjCGhEHOawl6LLSlzMOMBiLuWXcImLMCmSxiI+azLEfJUTk/nECzWRik20phP71Mxq7jI2gGRNNFZByBMgYhoSmpDf7hCaqzzCa7aS52P+wisJKiuTvRLRA/eJwAegYQD/kEYApoGHtnhlA8+Yxh3a+ELTjAucEZXoRCkqmzoqDjvQ9OUPzRO6t3jjPlhTozKNuLg+lVGjodvGFp+1RmW+xaM/hFVI10gZkCqzjHBp10x9WaO3XDOby1xmRVsjTtb44BvKuEP/KRqAhx5MKFWeuUcHcrGPDnBgD/KUgARG0FUMVJAJGSQl2NoQogeKUpRlM0GyErgJRfwjoSdYRQ65Eg0O4AgbrLElUfnaV7/6VTRUutxkYKo4ZLrxpdc85lIYiZ1XwaWMIn1sR7O5NzdyNKjL9AasgpjRj8Yla1jTTU6F+tjNuhRpf02NUcMix6xEgwQtAIAuWhEDIvRgW+o8p91G8NUHtGEHOxiRsZiQVhBtMAQkUi4Xwlo3CVTiAP/omwNyERbLIEIFgWPcQ1XbXe9+F7zhFe9qWKuaal2gHfsgB0UAAQEOHMIBpnHAHhgDIhNQwjBt8OQn95mBsJI1bsoFzCg5/2S3HTTrBmshoWG7Ig0irOWgojEpV/Y6XgtfGMMZ1jANy/sV1y4FF7EQwv6IcIFWmQMbuoDAPsqwIcDQTTG9LRZfRHnPBP6qvzneJ9qYgAEDm0AK9VDwWdbRgxPUYzUV3vCSmdxkJz/ZNh0+SzTaoQIBrLAzPSDAVgy4CVBKMDFtYxETApyBEditrH4RcD3/UuC7dfAGqlowWPrBjGk0wAMUmfBWlAxlP/8Z0IF+spTBYoASSAsRPRBEChGRD2roeSmy8nI9wRYCxOSFWHBjYHLlNtw1i8jNbytDOQUwZ7CAYELf0C5Y+ixoV78a1rGeKKG7woBYHOKc3dJFP/5RAv/+8QDSrtoagTdNysNIoG2dJKuuPC3gvnAh1L9AgxacgQcfjMYHDUCEEEy8XSTJGtzhFve4JUdrrURjH0JwxjR6kA8ePHoi7ZBWAKrmKhi0GG1yc25ZK4DfB7xIRSPAp9zUvOZO+8LHd7vvO5zxDFbteStxdsAyUtNqcl8c44BeHMQzHmWylGo0HVDLCRrQgW7reRXcArZ2pbAGL0O7DZXUlZpNwAJhYboNYe20jnVsrIS/jUMNb0dqEordinO340lXupM5vnSPP2g00cjHNBxQgmtDeiIAUOgdGPsPHXh5RDCWQBvIxiu/mGAHkxzCY0LEbJ7vuGwI/zHCT+Dw1AD/QgjTKMXRv+10v/9dvNVqOuDJ+/HUSL3RLtRuNAD4jLxSJAp08e9akR2CtPWXuHWjp7ECvOZ8M8G5QMfAMewedSLoHeukQTrhWd96otaiA7RctesLD/Up5wMRRCgSNykCAG1xoBYUGQAaluAXLjh3L6PsdL6Pv3bI7KANLTI42sameRaQefSl90o/ANAOQFzj9ELgO0RpX37zz9BVF+jB3s9fVMNHHfe6r+sdpvEMAFBEETVmq+XDqvxR+sX6KuBFLGn5mo3NBHDtdsDnhsDuHIsraOAZ8IDiwm/82s8CL1ByLsABxA8DV+v9bi/3GkoreEBbVOBqJE/f8uIBfKH///ZJMKzv+EzpkvItMJRP8xSQQ4bAAVjlKwjAGXpgAqeBA8/C4jrQCI+wSS7gGYYQCb3C3LAC8eQvcCTMhO4gSO6vy2DOMUBp5swOMKwP9BJw597uL24QbjpkD3jwm66iFRpORyjQ28ivCeeQDnFDCZmwDrPiCa8iCkWwVVwFAowsu1CACzbBWF5EAvZCbsZQ+QRQBiugQ+6muEaJ58rQlHAQDXnwPrYiBlSlLeCQCFcvD0eRFFvjDktRDz+wteLPD1MPEHAPD1ogDbyM8tbOv3hlROBmES2R7SKxWHal4OppuMwwB/eAH5SpK5QBERpgvUAxLIoQFaNRGiniFKdxIv/2sFVYkSLIAQIIYL2uAgKkZhXKwBBNwGuS7/MM4wF2oOCsD8yGgOyeLRg7jRdFTzEeoaO6ggOmQRAezRlZTRStUSCnsRqtERv1TBtXyQEc4PGWYhRwbw+gAW5qhZ74qRZX8Atl8B2TzwVrcBgv0RdyUALKQBtSiw8nwsFQLxr+sQcDciBfkhQLchoP0moS8h864AcbcinkoAeOIQRyxZ/MCjA2svPcka0wIG640CPrMSQj0ROIwbK0ggFKYVoUhyVVr+9gUivzUCalkSYVxyZ5sgd0kiL6oRQUgwUo8vqE8bjwQhF50ZOOMimNC/MccQSAboIS8a02MSs8QNvmaiX/hbACt5Iw6bAro/Er+5AiSFDLBugmj+FWEAgpKVFEKGGD3tIuPalWQoAvDnDAPvIuNU0F04D3GOwfWuAQEOEGrFIw47AwXxMJDxMVE9Mm9+Eytuwq4kIRwMYxPIkyjwtGilIjNymB+OKBBMMGQdIX8vIBkgAquQIX9seVAhMPWzIrYRM7z48alnAgaTMEKcIynAE3sSINECgvkJIGd5E54wYAh/PMONPtSOQWwRDMEjFvumIDjEwOWLM6sVIOsxNAAY8BSIABPMAByoIByOHkStE7pfAfsOEyOiArDKgSLm3zDHAjKSEjH4NsEONDCM4AKZE+mbODumIZJoSWauEq/7sCGgPURS9uHVLFGYpgGlLFARJnNlURLBQz3lTIlbCi5X5BMnOFLhdw7HIFLsnmReiJLpXvv5yvApZTBX8hlaCQIuTAGRyABvhzMF/US5UuGkqhCMaUTLPLK3XUw2wSF3w0K7aGlELAksKqSUWS3+DyVxDxbdgyx+TGQ0dEShNR2gJqK0DAM3SEOrv0SxMV41qgB8i0CA6B187U9lbxO3u0lbBiHFqMn3RuHiugxxSD7Db0+hAOVM3KAEF0SUeVOeVGB7hCyA6hLQ7VNRWVVi8OBMh0GihuJtHUK3j0H8xBAFQTK4bv5TzV7AyQVI9UVI20rDpywIy1TwljPZfgAP/gYStU4M7yTFZD8Tpr1VthrRaEYEzNdFcndUdtkgQOYRpKYJru4+tw0eA8FU+JNDP7bT0JjkSYq2ugtD5XkFkEFbKWgv4iwMS29Rld8lsTNtAMQFVATlId9lwrdUfUlV0Ddi64pmw6VTBA7xKFk0M3kkg7VV899Pr6lWwGQTKQRoekjoWKREVbk1v/U2FntsmqZQVkzyB5tXLQVdvMtF3+gRjQoFibFPPMsWNFNSTlEpR0TF9TNZPudQnSII34kgGYARHuIPi2dfAookVp1msDjzAbtKEYIAIWikZEAwX+b2nJ0C4VcFlrEVd+8/+e9EP7NUQ2IQnGYbSWwi8RoWL/tRYgu/VrB3e8sEgrxZYiqnYaOACx/mHYdixeu0YGfwUuPZUFKq//lqu5+JWBko8J7rOYRMMAUrNC/uEVWQhRCVd1N2xrmxBxJ+ICSmGhquXelkAYNfYFTcm/RDWTSikEMmkXAYPHzMwWo1Qu0WYTPCiZNkCFQGAi+iECEIFxZ3V1q/e7JowKH/bwbHKgWOjkWs4Q43UwzGxyefe/isDy6DEw8m1fN4+tMLICNqFKJ+sfaEBqcJMEond6Y9Z6+9d/I6dB4U2gCCofQG4WxTcwau49m836WFByN28e2ffMPpQJjhJJlwCgkHEiiqwHVi5/pTd1/1eERzhUApgiaoH+/0phwWpBU9+uEn2XgR9R3zTShfkUfYfrfZE0A9yqmybiG7L08T54fw9WcEnYiI+4QXS2ruJPgP8BWwUhz/5h+E7V4BT4hgMjAMtQMd6mEeuJuYhTgYz3PHWYWuEAmqSrUJ9Xf0MYidvYjWXjK2vBzqhlKUrgzq5OEYIXgdEOMRSoHR8RRHyx7ZDTv3zXLyoYL3ClnpgFKqslwQ6hBSYifxeXjd/Yki95NJ5wcWpB2+7hKm5gGiD5H7iBLhA4gTczKeFyEAI5L0L1VMOuj0cEkfWizDIAZa8CWxtgwbLNb2ePRREWk4NZmLUCG10FEP7yKlagoIYuQ4rPlNusVhR5lP9uMKyIsovrqTDeU1dsTJEXMWpbZSwiAFw2QGqcl3qHGZ3TmSIOUjQ8ANeUwTS/gX+2VNJc+O3gNin9C08jqHPbbk9h+YorIIeFkVnGgRqnLh/aCAJQtJLV2aHfWJOrxQeurHQpAgSCZOiGjRHtGUSUdhA8NRJ3oLhmGSk3WkSyOYFwOJF12C/uUzRIIIQ4wFVWoO5wlIhl9qFzGomLeSLW1Bl+lCJiYBoEoAWioMX0WHzRLpHZLFmbFVgSWefkc6zQlzAukqV3uFUngpcr1omXMYr5V6fD2o2/MqGcQdWWQhmydQBcDoKemY8TSBibujMvtzivWW6yGX2DawcYqJv/RUl+VekfDODKBAgshTA/WpdrgVmsF9t6v1LrnEFCJ+uJbUEHMJaK18yK+Q/UNqhYHqiP5ZSQNYk3uYqSMIAScgyDBbUdLqMVJqJvyRWsGVt1AYEE+sG2bxu3c1u3d5u3e9u3fxu4g1u4hxu3SaAVM0yTlyIcewBnB3jbOgHf7LqKYbjTQDaU+rSt11e05Skx0BPuePgfUuGpcJN5TyAWfPmXi1i2abVavgF1DgG+41u+55u+69u+7xu/81u/95u/+1u+BaAUho7JvjIQgXApLiDv7oBYiZajbXjzyOwykbRe3267RyAEJEntShq1o+sfYtQBVi4QnWEdHEq917tW/7GhB26gGwmAxVvcxV8cxmNcxmecxmvcxm8cx3O8xSEgAgShyb4SJ3vg/gyrHwQBuxSh/xi8hjmWQ09aaUcEDHsOoH8Xbuh6MgkOeZvlH9rQ/iYC1RxgyM/ZxBX2G3y849YhAo7bwnj6H354B5eCHFKzBB73sg0uDO/GF9DGF47ytMfm56K6BscKrpkrmstubSdBMsJBVXjQjg/BHEgcp8ecVjsgAlJP3NaBGdR8vPbww2j6GWJ1IqLlBPShhescswWZxyw47nwxz0GU+khJWdoumjsTtWdkkA4hzwaqCCJgFCBd0mmW0hFb0DBd08XrK01BVR69956hB7RgDTrvmf+HUpAxKZqLy1gewG72oki/WFkogdCX2i/8bwlS6UYa4NFgenZ9/dcVltKtlOm+gtgHXIkjDhEO4eomgjFvwVQ5+p4v06w0KdZ9xd9dcFf6LQNi/S+imRI+SR43IW8CABEiQDTW9ARWU93X/Vvb3UqFvbsMVyvifclo8hpy2dRKwxlWkN/t2cZQvpD7uOy4WUN/JST5ggXaYG0S6LSfeu1+CzJM5Fd+RQfibyJQHLKTTLEx/kU1PtxMCuQ3jCbJiR9NDdWcoU6jPYGV1nLfMynhduG5oOYfAEW2KjE4079qBdMsHAPWETLioQw6eSJwUkuNvsSRPkCVHusAgQHyXu//957v+97v/x7wA1/wB5/wC1/v1bzpNSy5J4IaCGpSO3EPRNrqSySaRUlXJnjrNxPsLY1tbIWrnFptBC7Mzp4xHoAOTqBiB4mo5T7S6b7uKz0rLiAfBAAPat/2bx/3c1/3d5/3e9/3fx/4g18ABACoryLxkXveXwkQTo8ImtjXnmsRf5PM4EbnhqtX7KKP/2Jk1w7HsF8xRj/GLhy4bvH/vh5FRN/zCSkcrhERBGFBY9v1E9Xul6IfHKAIiGAV7kH/95//AeKewIEECxo8iDChwoUMG95Tka/IvX8UK1Jcx0yaxY0cO3r8CDKkyJEkLQYowoxByWj/LggpQkQjxWh3/xCNYMGlQgYuGXpW8JWhDYYHLEzo9LmzQgUWI4aEyFAhZ4YQRUZAzcCE6ZCtEkaEGNqGRQUTZJkcTUrWBJMMO4SGkLB1yDFEHf4xiICISEmOBHr02Lc3sODBhAsbPow4seLFjBs7fgyZZIcIHhk4QDQssubNFDecWOURo0zOpBmfTEmSpV1BRThYBJTv2M2dPslyefB2SFcMLJgYzRn154iqV3WGGHJTp04MujG02ZHTqFImXHhW59lzZ3Wzvkz4ovo1BCRz/1ocQqSscN+/pdu7fw8/vvz59OVP9tjPwTQD9ft/BIAIaB2J5l+BJqGkUmr/9MPaRBUxwNpTOnFBFv8LD4wAVxFbaehVGxRGtZMJx91EnVIjFqUUJcwN0QYlTJjFk1LZceHbWtopl11UTWEQzxooUATAZa2o5xdgBh6JZJJKLslkfPd1lN9+TdIHoIAcEThlfKclKJJqwzQwTQkzLSiAU0YZtQMGTQ1RhAQh4AYXV2/2VoFvx0mww1pRMYfnWlyoqFsbJkjV03W0tQXdhNTNqFNTDzCxSRpT/NOBM84sQyR7WW7KaaeefkrfkxaxZJmUoG7GUpWhZXQqZ1sGZt40N1jUwjNDYEAJF23kpqGbbWTgy1JqbogcBjv4AmifUDFxZwghjADtmoImVeiMUyHXW3Y+xahVtF4Ikc//ISfg0U6mRraKbrrqrpuuqBtFyd8/0ajGbmKqDshqvaYhGFg7AiASg0UA9HArnHGNYGx305lAiYW5ySlUoDaasGJcbMb1gHRKyQhcBXeKtfHG3K55MSInnDCNIOSYq2/LLr8MM2nuWgRvzIjde2W+NhP26l4APHMCCGPycAJycSJHFFnZ+RldUMNytWbGIVaMnFdRayzjjVNVJRZUIffExA5wuQntHs4IQAQBhq137s5uvw033DNXVHPcgeG8EZZ2k9RzSdg848w3FnVwTFxuEtVddUdhR9tYXOxw4dFDZFwnJQ9Y/EBPD8AltbbaNoqtjZ5jJbZTPTF1ghBcEsb2/96uvw67p3NTVHfsIOFtkd62d9Q3SRD4tYIHJKj0x8G/qtV4dUsTupNvGVwYF28sTF8xnpRQ0gZcGJgw+tLdAue5TiZkfyslDIeASAMejDlY67u/D3/87c2+oH7xyi9wgKuOhv8/vY/0uxM8Aw8CaEAE6BCXEFBCRkqRCoiYZ6MYUeI4UJOABY92k+mRDwPB+pr3mhIC7IRMRr7YwVaGQhQMIOIZAJAXy/oHwxjKsCT0qx0McVcR3eHvfyIBgAAsdQJETGMaFlNgVKSiPKTMqGNKEZHFNGSxrYSAKV3RHtaOohythFA5X+OCL9qgGwo+oA3HcMY6DuO+GapxjWqsof/9ZojDi+isfzz8CEukgQ0Q/OsQJegFtOBixBEKcpAbc2JXvPKsMGovA02x4K3MEjLs5IQpRXiKT7roi8t1JVBiO0E4/nGNa7CuSGwspSnl50ZTxTCO/9Ch/OroEXp5AExiSsMSSqfA7ulydCYK1FFGhAHOeUw3gAyWtiS5FEByj5cU0iRcMjiCaXDAGmsj5Smvic29pfJ+N9Qfvvi3Q37thSXYcIAzWgGPJMSDBYCkxC7fmR2K6WYH5kvWnVpENQyIjpfsvNUyR+fFFT1zJ8OJACD+YQ1qCiaN2WyoQ122TTh6M2fgfKU4u0SvDpygB6nIwRhxuUBCijRk8pRAG9r/8ADIjU03D7BcETu4sc/hcpkj7Ik8E4g9uDTAFv/wxig19dCgChVdEZUhK10ZP1h2hF71mIYAWqCPQLVzpFStE5+gZ6yVcvJoIRCkdgbBhA1yz6tYodoY16SMayT0p20bqlvf2qSirnKieZtjOFEjmAAgwhWN0AJLhxPIqhKSCXwKZhEwwEinCNRgThkkbb5oxUt+zYnF2pwUFYFGa8J1s5w1kFyXRK/3HNWuFsXrSFQDCEEgggMD8IT2QBhSwQ6SsGHcShs8VpU0cYUogPVaTBUX1sj6loFOtAr5brWEA3ADlGztrHOfax/KQOmN7Qkt++TFEutatzSjrWhSL9ol/4oYQAAniIEiKgHIdsLznVbVTSN3UNIdVGCxTbHKWaxlAss+qnviu5NlTbeEJBCDue3TLHQPjGDIfBZVG9lug6/rnu7KUKkcUQ0NHHCCAJRhE41U73p3OV9iYksrk+OeQJ/ZtfBlIL9b6RwvK9DhE0JlE5P4kSgLDNQE63jHh1lwaRxcESCLlq65I+13TXvaf5BDCCebIlWiF1vZCpJqTt4KiYASzIMNd0Ih0q8JBuFVHRkOAw3MwBLScGMct5XHbG6zSHysGSG7kF7UAIScNSPhGFL4IwZgBiKcgps1bU/Ks12RV3Bj5WPFiLBxSk4Xd5KsaYWZxI9clJnLAIMXuv9505zmCJwhk1Ei3GHUAVhFC1WDjTsIQAARiAEJ4JNnGO6Zz02wMgvESuhB8iksFBwBfEP2oiz7GpIcs+muQSTIrDSSzEzLwCbWIAVNd3ram/40qCnCgSJoe9t0ocg3TrBtbasvyKSJNR3BW5JrjKMMa3qT9qKc659ctdfw3bJxuEbs+0Z6UFvOyQ56+0AZbUIH0qa2wXdsbc1kuwhCiEEptH2IWrTDGUWYhgpicQhtC+HOjTH3XVe3FymsoRJPduT2PrzLkja63vy9k3xVvOJd/9NzJigdBpQHop0soQxwaO7Bf67jhEfmHtquSz8EUARn+IDoRRDQMByQ9HK1x+P/pQV5SXSwCWVbDFco52+IE1iUXdJWWTlCC5/qzbjaZO+wQEliTzaBhgH4HOh0f67QIbPwFfxjA88oggPagYekb2AmAIAADayOZyLn0Mjwm3VHonCAJayYBRQsX7xJWrHkXMXevsBAm34d06SoqE0saHtNxyeBww5KkozDrJrrDvvO3v0xTHcGhrXNARJA3QHrWyrH7aV4OXq38ej2iCgV+o8BoGETIzshvHNNW6eE3YE1DTGesGYoQ3aNiVHJrxWVw7zkqgb5I2Fo7M8f1Nkrhl4Lr/g0HFACBjCgB0Xowf1aAIB2HNSFnKH6kRHPEd7gDQlFTYqwCUiBepZ3edOx/2swRUgxZ1tAcUwbcyI2MkJedDkldoE9EWCZhlDWkGYhYX7oR4LYpH6NwXTKgAsb4AMsQQ2sUQSCYxfn4QC4EGHB10qM9z6Oh10DeA2RBxU8kYAn13XhY33TAk8sxiISaIRUQSL3VShM4GWeYx2bMAg2Zg3e8Hv/MIIl6IVsdIKIwX7aJoODo209kAsGsHARsIWK4X/Eh2QgAYIUAQNJcIDaMYQzV4Q90XmBoofdk0m2dV9YxAUfY2me04cmtU9JwRORQhHURH4g0YVfSIkxFIaHMYZFIDQbQQ0nUQQmo20OwE3lhoNIBYcAuBFaiFD/gAJrcIc6EVwKuIBHeEVhlv+BDyCBWXMVJ4JFI1RSgnKB2LEJZTAOC2VglYiMMHSJiqEMiNADamNdgFAC9PeJESB1N2gldTV8O1h8ImFLxbFiG/R8hPaLtShIgTg5QBFTWeSExZFsnmdSV+Q50IZQAkgSk5iM+Wg7y2gYqsEAHkAO1PARHkAABLAB2cV/pJiNRbaNu8ODoKRuZSB5IySOs9heJuWAg6VfFvg5ieVog2RIoBd6ijNwxphj+oiS+yhdHGFD/fOG3BiHH6FQUrB8X1MBFWmRDVhVeahE1FJfQWhvIsI15rgxO5cFq3iPx5iSS6lNK/ku1DVXC7l4DWk7jqdWFIF1o8OTe5gjR8iEYif/Vl7DKB6JFWmHFE4YdrsUYHK3F/jIlG8ZM/wINy/pkN3YESAIDxumlWHJlTnSgOvFkwyUAYNgApS0RfzFSFwDhZ5jha4XiR/hlnApmfoil29Dl1VplxuhUMRQkzaJk7Ook1QVmGcxCCU0UL1YSIk5RfnmVZtwAEdZEpE5mbPZLk5JM1DZTVIpfBOWmRbhDaKkCPYGFbiWk4GSkYJEIyAllmqXehISIyRlmPZWUx2IlCIhm7SJnZ9SmW5zmbFjlaEEhIKUh0nERV0ZjMEhc1Q1Sd9HhRWwOZWUNb74b6ZDVc42CNHmU+WnlNnJn6eynTvTnbDzkHW4BMgJWeXTOD3Z/2/WwYfpKZo2ZxbashY39RR6MkKmeStVxYFpUJ0iuJ/9CaKc8p82E6Cv85AoMAnMt5fvtkSDCU86AWbu6YfwVJoZyEGLGX0hYBTdU3OAtIi6tHNREJsfGqJFyiQjGjMl6jpW+Q9psAl1MjoHiiveUSc00pVUuGgMc4t/6DlmsWsRGp/DVEkhpZUQupifwwVwF21JeZJG6qZLgqQwo6R7w4PrJnn9dqAhsAMs4BPdcT3eoTFpYT5RcWv+RZQiM0wSADLLCTr+hJpN1E8hcJw11YgEx6Zr9qaZ6lm2STe46ZKlqIN1GZMUoVbINwCuaG8UclyH5CwYABbPwaen0xYPgP8BzoIhu3WoG2OYi9pAdUJiRCieNqehHHgA8FARPhWCFnGdmsqs7hGnLzOndgNLpbqKOrAEIiRIlCc5UMQVFhQtfyQ5hrOaDwpIjlUBpeNP1yGf3zdS2RFgA5aF8pKsFbGszWqvm/GsLhOtcQNLLKFWagWEZhmFtyZQGOJIUcQm3HqwIzBGOAGYt/iVS3Ncg0Yb2jKE7sRedcJ8P9JTc+gR9XqvIesY+doy+wo3SnUNA/gPxGCHFctfOXUrLNAWKOWqzjI2rTpGK9JSZnGIulSOvKSEGuiyNsWX76Q8Z/aISdsRICuyTZsYJKsvJvs2sPSbFYECg3CH3HdEYyGOZPH/p91RkX56T34iWbNViMghkllzUxKAixOyrrL4gMKYBB5IgB9LpE6Lt4wBtfUitW5DYdQEB9/ojqHXRGKjegxqFkrYUkrhC90ils9JSIU5HFbBmjZFQWzLb9x3sepZLfQIgva4tHebt6PbY5xKO56KP327Myj7mwRKKMgZIoabS9UCgfEIFUNok5Tap+Sjo5UbFZcrNZBbuO/GuUXJoaAUDfNKEUxLus37ZqZbP6bShm6jGqprM9O6ViJ3h2VbZkxQQiAEpl4TkotyU5QjUtvSTC12nFBBYhiZFL74mYI1jEKan3bbps6Lv4MhV9NrmaBKld5pl6DrpC8KNoapi16D/5bBgVvX96JHlIi39WL9ZJw4oi1f5HxFuARx50L1uxHMm78fXBGfxb8A6r+8OaoJJUp5ub0g5hvRiZqOC4vfc6bW8kAJDIjoen1n6n0ltoeb4Hoc3MGiC8JD7GnQ25KpW8J61o2hRE3K92KPpnX2RS1LAXDhqD2sCbvb0lvcu2L/xcDCOxZbmmvJ1XMJGcT3S8RpXMT4gbryY70xA0tzaIBP/Fu+WoHUEotEWFLme74gEos6CsZdfDB5Yp4p4mVjLGBKyxdCrMZEnEotgF3zIsmTTMmVbMmXjMmZrMmbzMmZ/A9vDDNU+w+1EJ4jlRNWipYcGVYntHqJCjLtGk9byv+9f5J5hMy9ipurD4iF9oupjezLc8MS+VEEDVAKzGDMx4zMyazMy8zMzezMzwzN0fzMQtAATbc/JgyAosSy18q5NMIsilkoOaFJUnOugFUisAw2MjfLlIUtwaG5h0xoZsahj0mvjOzLH0w/DNAAQYQI/ezP/wzQAS3QA03QBW3QB43QCX0C9XDNSjyqVou1XddLvraj1bFvYZx62yOwvBSETngsiFl5JKJL6OhiXTeMHsjL96zSIQy9C+IBLw3TMS3TM03TNW3TN43TOa3TOw3T+0dR2Gx812BLM6xLEzRP0hEiHxMsY1fSL+rCOfdBByMWzBPLnMOl8PRsa5rSK63/0vQzVKYIk6gIAxIpnTWVHaPHwNvSjg3k0WNlyiHCu0h9oehKnzhHUuOcy7DriJBpz1xNujNDL6GFkPHDAD6AimAtqqgoBZPQOPUJFcmCdr7aW76BS4NLSNjhUkIrnsfVWI86HZoEjITWiGUgpFvt143s1ZwxwgXSAiWACyrQQt8E1B5hre8rW5EGfj3qFIlroxjr2GMhc9haSP9Fn4UM3CyV15QKdwNm2qf9wRnFhgYyL4Wx2oPRAkTQCkQweANSCrUw2xxRC2Ttduu1b3iIa1ygzhvdntdyE9wjsDclRTvKo6B91bvUenyNxs7dvCwxGdWNJP5t3QQwigz53Ruh/3xPuocshrm1saXKhm8SbcBl1qVUtkAb/YsR+2FrkVzKy4V9rd9N+w0tLVQQEKqY+dCKgExShsvxJHNhU67C/YBcqz2+YB1edSdWlOLD7Ye5lh2bkMihm98fjreq8Ts84AEtYA5I3gJLzuRN7uRPDuVRHuU+YA5VbuVXjuVZfuU+4ANS7uVfDuZP7gGr0AAAfr3dSMrXihXkOIWW+3necYtnoaGKq8Dcl1gmNyhui3nIzeO0cYXHqqweLuTMqhrSwAEOgAfPoOiJruiN7uiPDumRLumRjgcOYOmXjumZrumaPkCT7umf/uiJzuiQnugOUBeznbKruM0MpOIblIvf3P/eRm273Btm6H3UQAl+yWQ0/lQtF0rfucagZ5ZmaebBg86stYALAKDsy87sze7szw7t0c7sdyAH+8ADPLAM167t287t3J5qeIANGyDt407u5Q4A5DFDPTOACnW1m0eOrl7Ak+tF3UInZW2TWxOPDMoopXOrXNfYOo65wE4bO5dpkVjsxo7wIgEI9bAyhxELDeDT59c3VynUaq7eIGZz/KZ1XZWAOjohF28thiYoq5cjO5wbUjMIgKjOXNmIaBBtoRToQZ7wMy8Y1FAPvWcY4XAIFzBObqbu18ASdopERZhMh1UbGV++NC7RSwG8RRGh0aFJJ889PwosZ4fhH8Y4llr/nQdP86cNCP0A9mEv9gwA9iSgDAZwAWKv9mvP9jZ/COSQ9mwf9gzwv9DVN8n7D9r7OYQWqcu0w9sTkjROfSKFHVrnXkThRV7LJ2+x4IVygWeHxY6tHclV2sjH9V2/0oAQAAJwCJx/CJ8P+qHfA54f+qVv+qePYadv+gLA0JzWM/96DVjXq2BMVREuyGzbMJN7Facs+YNCMlb2Fa46LBLwpXsvvpAfb9sCd3Knissr6Jjv3JYRABBQkNVv/dWvC9ev/du//bpA/dyP/YdQChC2Yz0Tr3AgkRapRUH4wDA7aFLGnE7BK9x6MMXPoHJ+dhYpI5gVrwDx7x+BHj32CUSY/1DhQoYNHT6EGFHiRIoVLV7EmFHjRo4dPX4EGVJkRwYOQIzsmI8ZSpYtXT4MUIQZA4HWvP0bkGRJBZ49ff4EWoHFiCIhWFTI4CvEEAksTGAYMuSBiaBVkWZIClXC1DYYQkgACzbqA607mGDlkiEtUi5Pme6wGvfnkgP/rlmzJpCgwZd9/f4FHFjwYMKFDV+8UKqDtH4MHD+GHFnyZMqVJQNSoeLw5s0xZyK89k8RVtKlTZ82PWLIiKNMWCwdkaHC0qZXUd/O4DpEEdYmTDDhwmJHmx1au769yqVCWqwV3Eowi1t66U1JYNzNO7DgQc7dvX8HH178+MPRzJ9Hn179ev/27d2fJx8fpGeaCK0d2DR9OlLVsSu4JiqE4IgagQnb9EOrgh0kWK2N35bjybcHGMTAON8M/I8JX0zIYAfadvAFQek2WQMFuxDaizv5VmSxRRdfhFGkaGKksUb67IMhiU0wlMuqDHZjrQJfFizKhDYopKpHn9RSUDWmHmgrORMWHCIEqFZ7gAXZhGKhqxEYZOooJX1kYok0FEqxRjXXZLNNNwWbcTzz3rRRpvpuQoG5Ma2CDS4jKaTkgagwoKS5MdFiwsOoqtyBKi7aGqqoHZxkaoQQQhjhy0VXwwDCPYHKYJAlyhgnoTTpRDVVVVdt05trvLkpr2jw4szVa0L7J07/Vle8EaE0lmDyU6BoY4EJEwSVipIji+LJNLnSenQ5DBjkDQOnhJqUt0k3LaLbbqOSIIQsOdxS2CVJHMDU7XZlt1133yXMG1ltktcaXAnDKy9a4Y2v12uiKGMn5kQ8zZeynNNqqtmQQ0u56dZay5c2lorKSkzF2opBcTHN1FIGWaPkLNkIvo05HdTli1+VV2a5ZYhsuiaaW++Cdd/B8v3HXpfB6xUnNDY5kGTSKsCgCOiMLVoCB5lAFgOq1BpYukeh5sK1ablddIQJpeKQBa+Tongq0qIWGq0M6IIDxXV3Zrttt1W1ZtbxXM05u7cL61mH/JAy16fnHJxNWxN8ibS3/9Lkgro05ab8qlIrsxR0Kwx9MXDKj6MLtm+elNsEDWLUTvlu0Ucnnby77pKHH2FiCIST7uIgR4/SB+sVngOWmFrznsr6DUgWQmSCNgcPR3zgq5zLoI0Hdsht8GPH4nC5tYgeVPpy+4Y2VBP1Wnt2778Hv6+8NPhjjxMKOqGORezY7AgZXAi/JV17JQYNYA3V/EfejnrK6EYrUBaFDJS7HinHUwZ0DiWShBXLVclAsokWgIzmoGjprllcoAvoaFARu8XPgx/8oAa0oAlUyIIc5EiGAopgjymcyBqAAERo6lUOavwjC4DQFTXAYR9qtDAbgBBIvaghjVfZEBDS+McbtP9QhyfgJTRZuMAO/yEvblDjGtwABBtAWJE72EkgimDO9PLXn2JRT2mUEMqygjQ0C/6ESfobAVzMxqSthWBkbWTOqGDAvR5gY4t/BGQgEWKBIiBAIdbAwiJ+IJAwQEIAePiCH2QXhwUsQgxOgCQYaqAPAfQBCovkRS+gYAE34AEVOBCIEkTwgrv8QxROKAAlj6EJSxTgH45Awiye0YdF2EAgxHDCDBbwDATcq3QXkAMBlLlMZjaTmYKYxmf+cQCzkY1kQgmQbJ5ToYstymlBK9ttkPKcqThsaEN5ErnCeRoSSYGPN1iHM+VJgA74MVeCxGc+30VJKwShbk4USGgscAz/S9xDBXnQBALY8AYRFCMRd7jHHvogBFYcVBMv+AcQYNGDPnCAA3uowwT+wYsR2IMNeaHAHhDADSzQwQqoMAMlNcGKEkBiDynwpShgUQhWrMIP4GvBCZwxVKIW1ahGRUQEaDIOnehpnbJhgcZ44outReVbi4KOL6z5VMUxYVlOe6DZJPaxYnGVjZs4k3aOutaiTiMf+oRrXFfliCU+IWd1u1cN6PA+gch0AgytAykEcoQiYPQfNfBCAjK6V7u6kg5U2AYvYGEPXKXUkJRMwSItoAlbCkQUe7CHK2Ehg0WGzxw9cEBqVbta1rK2ByqoxT+ksIa94c9cfxqC02RzJHBZ/woDZBkUBNv4E2gRjkDXYsujlEMxQg2XLaOKwj82cAjUtta6qT0BEeS6Xe6yaQFWOMNdaUUICLhADccwrEDUsIcXxEEEVCitBawg0n9oYBeKBQIdMJqXOCzRBZKlrGdV+o/+1gF+CtBEAwTRAAWfAL46DW0HZwcIGmCjwtjAcIY1bGEadLjD2CCHQH41R3Nt6XlcqxqRQkCcDJiAEpHKqnN94jDnfIhDwDHblPrzvwt+6nAZWEO6ooGLCl/4whvWcC5w0V0mN7lF501Aafv63SB8VrEIOYIm6MFQ+ObFAsW4gkDsi1/QIkQDeSAtSQP8D3wc47JayOw/sgwFA2xgA//t4AcZRBtamTkZIQDbiQW3FKh0OieqVfoNE85y4k7JuCcDO3EIQAStqvnGLYi2HgL7tomTGdPPnwZ1jKyhwj6Eggc8mIMILkrgBWiiGafGwglk8AQux1cTYf6HEu6bUS8UYxE8gIATikGP+u6iDlDIBSjcUFgCa8EKfnABYlMQiFTQ4A8OsCWEp+jp7d7KZ0DTXXOy8hYFmoALAfoPotDpH0dnGptRGYGDfBMc5WEKXGY5ngXpkpebhNrf/47PraxhBDc44wQH74MfWqkBffTgBIhwxhd8WWuByBfXSsgDfunwBSc8vJa4wkcTpuHQedDBkP9Awh5WfQoRGPwEhVD/5J7v2uR+i8asijMBbX5bIQyoZivq5IJS3iKymyuuJ21wkta60s1NxZHoZl1CEj7nbYBX3eqbmVV2CAEAbIABV3ETyDjOAYAq1MQaW/D6TcaxAfZdIwsGcB0Q2PuPMJBBdjhzxDnIYIcPtMMWU/xHI7DBidBYQ/B7Rwg82uHLPjMZV+W4HVcJyAWKbarpbaAcVihhoaKbBmImeM0QjAamIvRWXHIMI1c3MQkUUP3qr4f9X1opYXvhJeuHzA5AE2IzuZ+8Jv+0W3ZeFfxW/r5eNZEbk+NUP3BrLoxD8nlYwpK1BxjLxcbxRbvHppYWZ2BapV/NCH7bht8NLjm2LbGZ/7IQe/a3vyV4cZXt8xW3fN3+dDirPfzBHhpewBL52LGX26sXgRvA+asXJ5o9CZMrukGBvRG0R8GtFWuDCZyYTQmXB+gKCdifdmsW7pMNDHmAx2EeX9gQ4Ngc4bqe9EuCUlFA93PBF6SIV8GO4bMJfZkTwDsRwKtBW9EXu5AX0HCiGjQ789CZvJgZGSy8XKGVeqk5PxuxNiKNE3uAcrs+pviK0hOLQTkLDnQjvjE3S+MbLnw0IHOnJoTBM0TDNISR0ICBgLk55jgWBhGbqSGjB9AUcMGAkek8cTKeDtzDETkZNRTEQSTE8ZitTdiqcIrD3EIj51iWEBCS5KmQ5XmgRNPcQ+VSnKn5Q9QYFXgoxE8ExVD0i5jRm8zJH7VIFA00Ct9QFBQDIOchFzESw+3TQzYSw+XonHQRxV3kxV7UCEBDvxLbkh+BtwpxEqMQGQhJEE+5RYgpF7O5xeUgDUXwxWq0xmtciAH4mTAUNG1COqyJI3Nrlg6MRlDpiWCMRuWgC27AxnZ0R1FUhPzwwM7zqq8AC/HDN3DaxH0sOumJus95x4AUSDQ8gElYg4NEyIRUyIVkyIVEBmiABmRoyImkyIq0yIvEyIxkSDTYnoH0yI8EjIAAADs=;" vertex="1" parent="1">
          <mxGeometry x="10" y="80" width="800" height="351" as="geometry" />
        </mxCell>
        <mxCell id="DPOwjDuqGM72gEAuqrdW-2" value="" style="whiteSpace=wrap;html=1;aspect=fixed;strokeColor=none;" vertex="1" parent="1">
          <mxGeometry x="604" y="220" width="210" height="210" as="geometry" />
        </mxCell>
        <mxCell id="DPOwjDuqGM72gEAuqrdW-4" value="" style="image;aspect=fixed;perimeter=ellipsePerimeter;html=1;align=center;shadow=0;dashed=0;spacingTop=3;image=img/lib/active_directory/database_server.svg;" vertex="1" parent="1">
          <mxGeometry x="686" y="298" width="101" height="123.17" as="geometry" />
        </mxCell>
        <mxCell id="DPOwjDuqGM72gEAuqrdW-5" value="" style="endArrow=classic;html=1;rounded=0;exitX=0.638;exitY=-0.019;exitDx=0;exitDy=0;exitPerimeter=0;entryX=0.5;entryY=0;entryDx=0;entryDy=0;" edge="1" parent="1" source="DPOwjDuqGM72gEAuqrdW-2" target="DPOwjDuqGM72gEAuqrdW-4">
          <mxGeometry width="50" height="50" relative="1" as="geometry">
            <mxPoint x="410" y="610" as="sourcePoint" />
            <mxPoint x="460" y="560" as="targetPoint" />
          </mxGeometry>
        </mxCell>
        <mxCell id="DPOwjDuqGM72gEAuqrdW-6" value="Thingsboard server" style="text;html=1;align=center;verticalAlign=middle;whiteSpace=wrap;rounded=0;" vertex="1" parent="1">
          <mxGeometry x="706.5" y="426" width="60" height="30" as="geometry" />
        </mxCell>
      </root>
    </mxGraphModel>
  </diagram>
</mxfile>
